<svg width="65" height="62" viewBox="0 0 65 62" fill="none" xmlns="http://www.w3.org/2000/svg">
<path d="M51 4.99998L1 4.49998L4.5 11L1 18.5L4.5 26.5L1 33.5L4.5 41L1 49L4.5 56L1 61.5C1 61.5 44 61.5 55.5 61.5C58 61.5 61.1147 60.3089 62.5 58C64 55.5 63.5 53 63.5 52.5M51 4.99998C51 4.99998 53 1.32129 57.5 1.49999C62 1.67869 63.5 4.99998 63.5 4.99998C63.5 4.99998 63.5 34.5359 63.5 52.5M51 4.99998C51 4.99998 51 33.0359 51 51M63.5 52.5C63.5 51 61 47.5 57 47.5C53 47.5 51 51 51 51M51 51C50.5 56 54 56 55 56C56 56 57.5 55.5 58 54C58.5 52.5 57 50.5 56 50.5M19 39H21.5V41L23 41V39H25.5L23.5 35H24.5L22 31L20 35H21L19 39ZM19 39L17 35H18L15.5 31L13.5 35H14.5L12.5 39H15V41L16.5 41V39H19ZM15.5 50L12.5 53M12.5 53L9.5 56M12.5 53L15.5 56M12.5 53L9.5 50M41.5 46L44 50H43L45 54H42.5V56L41 56V54H38.5L40.5 50H39.5L41.5 46ZM39 12L45 18L47 16L41 9.99999L39 12ZM41 18L47 12L45 9.99999L42 13L39 16L41 18ZM35 13.1338C35.5523 13.1338 36 13.5815 36 14.1338C36 14.6861 35.5523 15.1338 35 15.1338C34.4477 15.1338 34 14.6861 34 14.1338C34 13.5815 34.4477 13.1338 35 13.1338ZM29 20.5C29.5523 20.5 30 20.9477 30 21.5C30 22.0523 29.5523 22.5 29 22.5C28.4477 22.5 28 22.0523 28 21.5C28 20.9477 28.4477 20.5 29 20.5ZM33 30C33.5523 30 34 30.4477 34 31C34 31.5523 33.5523 32 33 32C32.4477 32 32 31.5523 32 31C32 30.4477 32.4477 30 33 30ZM30.6338 15.5246C31.1861 15.5246 31.6338 15.9723 31.6338 16.5246C31.6338 17.0769 31.1861 17.5246 30.6338 17.5246C30.0815 17.5246 29.6338 17.0769 29.6338 16.5246C29.6338 15.9723 30.0815 15.5246 30.6338 15.5246ZM36 34.6338C36.5523 34.6338 37 35.0815 37 35.6338C37 36.186 36.5523 36.6338 36 36.6338C35.4477 36.6338 35 36.186 35 35.6338C35 35.0815 35.4477 34.6338 36 34.6338ZM36 39.6338C36.5523 39.6338 37 40.0815 37 40.6338C37 41.1861 36.5523 41.6338 36 41.6338C35.4477 41.6338 35 41.1861 35 40.6338C35 40.0815 35.4477 39.6338 36 39.6338ZM35.5 44.5C36.0523 44.5 36.5 44.9477 36.5 45.5C36.5 46.0523 36.0523 46.5 35.5 46.5C34.9477 46.5 34.5 46.0523 34.5 45.5C34.5 44.9477 34.9477 44.5 35.5 44.5ZM32.6338 48.5C33.1861 48.5 33.6338 48.9477 33.6338 49.5C33.6338 50.0523 33.1861 50.5 32.6338 50.5C32.0815 50.5 31.6338 50.0523 31.6338 49.5C31.6338 48.9477 32.0815 48.5 32.6338 48.5ZM28.5 51.5C29.0523 51.5 29.5 51.9477 29.5 52.5C29.5 53.0523 29.0523 53.5 28.5 53.5C27.9477 53.5 27.5 53.0523 27.5 52.5C27.5 51.9477 27.9477 51.5 28.5 51.5ZM18.5 52C19.0523 52 19.5 52.4477 19.5 53C19.5 53.5523 19.0523 54 18.5 54C17.9477 54 17.5 53.5523 17.5 53C17.5 52.4477 17.9477 52 18.5 52ZM23.5 52C24.0523 52 24.5 52.4477 24.5 53C24.5 53.5523 24.0523 54 23.5 54C22.9477 54 22.5 53.5523 22.5 53C22.5 52.4477 22.9477 52 23.5 52ZM30 26C30.5523 26 31 26.4477 31 27C31 27.5523 30.5523 28 30 28C29.4477 28 29 27.5523 29 27C29 26.4477 29.4477 26 30 26ZM45.5 23.5L48 27.5H47L49 31.5H46.5V33.5L45 33.5V31.5H42.5L44.5 27.5H43.5L45.5 23.5ZM10 16.5246L12.5 20.5246H11.5L13.5 24.5246H11V26.5246L9.5 26.5246V24.5246H7L9 20.5246H8L10 16.5246ZM20.5 7.99999L23 12H22L24 16H21.5V18L20 18V16H17.5L19.5 12H18.5L20.5 7.99999Z" stroke="white"/>
</svg>
